# xmcd
#
# Track frame offsets: 
#        150
#        23307
#        35443
#        58899
#        78520
#        98938
#        126944
#        148875
#        177345
#        192085
#        219139
#        234803
#        253889
#        271369
#        286523
#        312083
#        332823
#
# Disc length: 4774 seconds
#
# Revision: 0
# Processed by: cddbd v1.5.2PL0 Copyright (c) Steve Scherf et al.
# Submitted via: ExactAudioCopy v1.3
#
DISCID=eb12a411
DTITLE=Various Artist - Akella Presents - vol.167 - Blues-Rock  CD2
DYEAR=2018
DGENRE=Blues
TTITLE0=Sakis Dovolis Trio - I'm No Angel
TTITLE1=The Cold Stares - Friend of Mine
TTITLE2=Southbound Snake Charmers - Out In The Cold
TTITLE3=George Foster - Dancin' With The Devil
TTITLE4=Dead West - My Tennessee
TTITLE5=Bob Daisley and Neil Carter - Empty Rooms
TTITLE6=Sean Chambers - Welcome To My Blues
TTITLE7=Dave Meniketti - Loan Me a Dime
TTITLE8=BloYaTop - Use It Or Lose It
TTITLE9=Brian Ames With David Danced Collective - Bitter
TTITLE10=Jay O'Rourke - Wild Wild World
TTITLE11=George Hotte Miller - Livin' In The Valley
TTITLE12=The D.B. Walker Band - Permenant Darkness
TTITLE13=Billy F. Gibbons - Missin' Yo' Kissin'
TTITLE14=Kris Pohlmann - Feel Like Going Home
TTITLE15=Too Slim and The Taildraggers - Stoned Again
TTITLE16=Clockwork Wolf and Co. - In The Sunshine
EXTD=
EXTT0=
EXTT1=
EXTT2=
EXTT3=
EXTT4=
EXTT5=
EXTT6=
EXTT7=
EXTT8=
EXTT9=
EXTT10=
EXTT11=
EXTT12=
EXTT13=
EXTT14=
EXTT15=
EXTT16=
PLAYORDER=
